<svg width="20" height="12" viewBox="0 0 20 12" fill="none" xmlns="http://www.w3.org/2000/svg">
<path d="M18.772 6.74492L15.4266 2.97968C15.237 2.76298 14.9661 2.64108 14.6817 2.64108H11.7427V1.96388C11.7427 0.880361 10.9977 0 10.0632 0H1.67946C0.744921 0.013544 0 0.893905 0 1.97743V9.386C0 10.0361 0.474041 10.5643 1.04289 10.5643H3.33183C3.56208 11.3905 4.33409 12 5.22799 12C6.13544 12 6.89391 11.3905 7.12416 10.5643H10.7946H11.7291H13.9639C14.1941 11.3905 14.9661 12 15.8601 12C16.7675 12 17.526 11.3905 17.7562 10.5643H18.0135C18.5689 10.5643 19.0158 10.1174 19.0158 9.56208V7.42212C19.0294 7.16479 18.9345 6.93454 18.772 6.74492ZM5.24154 11.0655C4.65914 11.0655 4.19865 10.5914 4.19865 10.0226C4.19865 9.44018 4.67269 8.97968 5.24154 8.97968C5.82393 8.97968 6.28443 9.45372 6.28443 10.0226C6.28443 10.5914 5.81039 11.0655 5.24154 11.0655ZM10.8081 2.64108V9.6298H7.17833C7.00226 8.72235 6.20316 8.04515 5.24154 8.04515C4.27991 8.04515 3.48081 8.72235 3.30474 9.6298H1.04289C1.0158 9.6298 0.920994 9.53499 0.920994 9.37246V1.97743C0.920994 1.42212 1.25959 0.948081 1.66591 0.948081H10.0497C10.456 0.948081 10.7946 1.42212 10.7946 1.97743V2.64108H10.8081ZM15.8736 11.0655C15.2912 11.0655 14.8307 10.5914 14.8307 10.0226C14.8307 9.44018 15.3047 8.97968 15.8736 8.97968C16.456 8.97968 16.9165 9.45372 16.9165 10.0226C16.9165 10.5914 16.456 11.0655 15.8736 11.0655ZM18.0948 9.56208C18.0948 9.60271 18.0677 9.6298 18.0271 9.6298H17.8104C17.6343 8.72235 16.8352 8.04515 15.8736 8.04515C14.912 8.04515 14.1129 8.72235 13.9368 9.6298H11.7427V3.57562H14.6817C14.7088 3.57562 14.7224 3.58916 14.7359 3.60271L18.0813 7.36795C18.0948 7.38149 18.0948 7.39503 18.0948 7.42212V9.56208Z" fill="white"/>
</svg>
