<svg width="17" height="13" viewBox="0 0 17 13" fill="none" xmlns="http://www.w3.org/2000/svg">
<path id="Union" fill-rule="evenodd" clip-rule="evenodd" d="M0 0.5C0 0.223858 0.223858 0 0.5 0H16.1522C16.4283 0 16.6522 0.223858 16.6522 0.5C16.6522 0.776142 16.4283 1 16.1522 1H0.5C0.223858 1 0 0.776142 0 0.5ZM0 6.09011C0 5.81396 0.223858 5.59011 0.5 5.59011H14.1427C14.4189 5.59011 14.6427 5.81396 14.6427 6.09011C14.6427 6.36625 14.4189 6.59011 14.1427 6.59011H0.5C0.223858 6.59011 0 6.36625 0 6.09011ZM0.5 11.1801C0.223858 11.1801 0 11.404 0 11.6801C0 11.9563 0.223858 12.1801 0.5 12.1801H16.1522C16.4283 12.1801 16.6522 11.9563 16.6522 11.6801C16.6522 11.404 16.4283 11.1801 16.1522 11.1801H0.5Z" fill="#222222"/>
</svg>
